<?xml version="1.0" standalone="no"?>
<!DOCTYPE svg PUBLIC "-//W3C//DTD SVG 1.1//EN" "http://www.w3.org/Graphics/SVG/1.1/DTD/svg11.dtd" >
<svg xmlns="http://www.w3.org/2000/svg">
<metadata>Generated by IcoMoon</metadata>
<defs>
<font id="icomoon" horiz-adv-x="512">
<font-face units-per-em="512" ascent="480" descent="-32" />
<missing-glyph horiz-adv-x="512" />
<glyph unicode="&#x20;" d="" horiz-adv-x="256" />
<glyph unicode="&#xe600;" d="M315.077 357.916h105.025v-19.692h-105.025v19.692zM490.982 120.198c13.108 16.732 21.018 37.711 21.018 60.488 0 51.942-40.789 94.707-91.897 98.126v39.72h-105.026v-39.385h-59.077v157.538c0 21.721-17.664 39.385-39.385 39.385h-137.846c-21.721 0-39.385-17.664-39.385-39.385v-118.154h39.385v118.154h137.846l-0.040-157.538h-177.191c-10.896 0-19.692-8.796-19.692-19.692v-139.671c-11.415-4.097-19.693-14.934-19.693-27.714 0-16.246 13.292-29.538 29.538-29.538h11.625c9.419-55.788 57.947-98.462 116.375-98.462 41.072 0 77.279 21.091 98.462 52.986 21.183-31.894 57.39-52.986 98.462-52.986 58.428 0 106.956 42.673 116.375 98.462h11.625c16.246 0 29.538 13.293 29.538 29.538 0 13.266-8.921 24.432-21.018 28.127zM354.462 3.455c-33.044 0-61.296 20.375-72.986 49.231h-50.951c-11.691-28.856-39.942-49.231-72.986-49.231-43.5 0-78.769 35.276-78.769 78.769s35.269 78.769 78.769 78.769c40.16 0 73.236-30.084 78.087-68.923h-39.995c-4.372 16.981-19.744 29.538-38.091 29.538-21.746 0-39.385-17.632-39.385-39.385 0-21.747 17.644-39.385 39.385-39.385 18.346 0 33.714 12.564 38.091 29.538h120.74c4.378-16.974 19.758-29.538 38.091-29.538 21.753 0 39.385 17.644 39.385 39.385 0 21.753-17.632 39.385-39.385 39.385-18.34 0-33.714-12.558-38.091-29.538h-39.995c4.851 38.84 37.928 68.923 78.087 68.923 43.5 0 78.769-35.276 78.769-78.769s-35.269-78.769-78.769-78.769z" />
<glyph unicode="&#xe601;" d="M478.209 442.24c-45.091 45.118-118.273 45.097-163.357 0-28.668-28.667-39.048-68.633-31.286-105.539l-31.418-31.418c16.878-12.51 32.938-26.196 47.891-41.163 14.974-14.974 28.681-31.040 41.19-47.947l31.44 31.433c36.913-7.763 76.88 2.611 105.533 31.271 45.111 45.118 45.111 118.266 0.007 163.363zM461.625 395.959c-4.102-4.096-9.472-6.139-14.841-6.139-5.383 0-10.76 2.051-14.863 6.16-9.444 9.457-22.002 14.659-35.367 14.659-0.021 0.007-0.042 0.007-0.056 0-6.707 0-13.125-1.266-19.104-3.752-10.711-4.466-23.004 0.595-27.47 11.299s0.595 22.996 11.299 27.456c11.123 4.641 22.983 6.993 35.248 6.993 0.035 0.007 0.070 0.007 0.106 0 24.579 0 47.695-9.577 65.063-26.973 8.197-8.212 8.19-21.505-0.015-29.703zM34.644 346.095c-17.312 1.73-32.755-10.9-34.484-28.204-1.736-17.312 10.893-32.755 28.204-34.492 31.257-3.129 61.723-10.857 90.489-22.605-51.985-19.308-89.192-69.263-89.192-127.885 0.006-75.269 61.233-136.502 136.502-136.502h0.021c36.459 0 70.74 14.197 96.524 39.986 14.666 14.673 25.433 32.153 32.118 51.167 12.846-30.116 21.204-62.186 24.502-95.123 0.749-7.512 4.088-14.162 9.058-19.125 6.44-6.447 15.639-10.066 25.426-9.079 17.312 1.743 29.934 17.173 28.204 34.485-8.925 88.899-48.584 172.625-111.672 235.714s-146.801 102.731-235.701 111.665zM218.141 80.936c-13.882-13.882-32.335-21.526-51.965-21.526h-0.028c-40.519 0-73.484 32.972-73.492 73.498 0 19.637 7.644 38.090 21.526 51.978 13.882 13.882 32.342 21.526 51.978 21.526 4.439 0 8.814-0.447 13.098-1.212-3.381-16.675 1.379-34.666 14.309-47.596 12.349-12.363 29.311-17.214 45.342-14.68 0.447-3.304 0.756-6.63 0.756-10.017 0.001-19.629-7.643-38.089-21.525-51.972z" />
<glyph unicode="&#xe602;" d="M237.624 166.787c-6.419-6.096-9.573-14.254-9.573-22.46h-0.069c0-24.212-19.704-43.923-43.923-43.923-11.732 0-22.776 4.577-31.071 12.873-8.282 8.296-12.859 19.319-12.859 31.051h-0.055c0 8.199-3.155 16.364-9.56 22.46-12.405 11.759-31.971 11.25-43.731-1.141-23.691-24.955-36.742-57.642-36.742-92.032 0-39.394 17.339-76.658 47.559-102.231 5.814-4.914 12.9-7.313 19.957-7.313 8.79 0 17.519 3.732 23.628 10.955 11.030 13.045 9.409 32.563-3.622 43.587-16.309 13.8-25.662 33.841-25.662 55.009 0 7.196 1.1 14.24 3.141 20.969 2.659-3.663 5.532-7.196 8.79-10.454 16.082-16.096 37.477-24.955 60.232-24.955 28.391 0 53.517 14.027 69.008 35.45 2.055-6.736 3.154-13.8 3.154-21.010 0-21.168-9.353-41.208-25.662-55.009-13.031-11.017-14.659-30.535-3.636-43.587 6.125-7.224 14.846-10.955 23.637-10.955 7.045 0 14.151 2.406 19.959 7.313 30.226 25.574 47.559 62.837 47.559 102.231 0 34.39-13.044 67.077-36.741 92.032-11.76 12.385-31.312 12.893-43.717 1.141zM361.373 215.301c-29.731 37.257-69.49 63.606-113.907 76.486 24.123 18.858 39.689 48.171 39.689 81.193 0 56.962-46.136 103.091-103.090 103.091s-103.090-46.129-103.090-103.090c0-33.030 15.573-62.336 39.69-81.194-44.418-12.88-84.162-39.23-113.907-76.486-10.659-13.347-8.467-32.81 4.886-43.469 13.34-10.646 32.803-8.453 43.462 4.887 31.532 39.517 78.541 62.177 128.958 62.177s97.427-22.667 128.958-62.177c6.11-7.649 15.099-11.635 24.192-11.635 6.776 0 13.587 2.213 19.277 6.749 13.347 10.659 15.539 30.122 4.88 43.469z" horiz-adv-x="368" />
<glyph unicode="&#xe603;" d="M423.385 259.455h-62.779c6.104 12.832 10.397 26.69 12.282 41.341 40.048 8.507 70.19 44.117 70.19 86.659 0 48.863-39.752 88.615-88.615 88.615-26.335 0-49.947-11.612-66.192-29.906-16.050 6.538-33.563 10.214-51.962 10.214s-35.912-3.676-51.962-10.214c-16.246 18.294-39.857 29.906-66.192 29.906-48.863 0-88.615-39.752-88.615-88.615 0-42.542 30.142-78.152 70.191-86.659 1.883-14.644 6.177-28.508 12.281-41.341h-62.779c-27.189 0-49.231-22.049-49.231-49.231s22.043-49.231 49.231-49.231h88.615c41.118 0 77.293-21.024 98.462-52.899 21.169 31.875 57.344 52.899 98.462 52.899h88.615c27.188 0 49.231 22.049 49.231 49.231s-22.043 49.231-49.231 49.231zM100.529 341.539c-18.451 7.109-31.606 24.976-31.606 45.916 0 27.149 22.082 49.231 49.231 49.231 11.848 0 22.732-4.214 31.238-11.212-25.403-20.67-43.185-50.234-48.863-83.935zM236.308 206.942c-45.332 0-82.052 32.348-82.052 72.205 0 39.87 36.72 72.205 82.052 72.205s82.052-32.335 82.052-72.205c0-39.857-36.719-72.205-82.052-72.205zM323.224 425.474c8.507 6.998 19.39 11.212 31.238 11.212 27.149 0 49.231-22.082 49.231-49.231 0-20.94-13.154-38.807-31.606-45.916-5.678 33.7-23.46 63.264-48.863 83.935zM236.308 344.788c-27.209 0-49.231-17.644-49.231-39.385 0-21.76 22.022-39.385 49.231-39.385s49.231 17.625 49.231 39.385c0 21.74-22.022 39.385-49.231 39.385zM137.846 121.609c-43.435 0-78.769-35.334-78.769-78.769s35.334-78.769 78.769-78.769 78.769 35.335 78.769 78.769-35.334 78.769-78.769 78.769zM334.769 121.609c-43.435 0-78.769-35.334-78.769-78.769s35.334-78.769 78.769-78.769 78.769 35.335 78.769 78.769-35.334 78.769-78.769 78.769z" horiz-adv-x="473" />
<glyph unicode="&#xe604;" d="M285.538 308.686h-19.699v7.555c0 49.533-33.326 91.24-78.769 104.12v26.171c0 16.318-13.226 29.538-29.538 29.538s-29.538-13.22-29.538-29.538v-26.164c-45.443-12.879-78.769-54.587-78.769-104.12v-7.562h-19.686c-16.311 0-29.538-13.226-29.538-29.538s13.226-29.538 29.538-29.538h256c16.312 0 29.538 13.226 29.538 29.538s-13.226 29.538-29.538 29.538zM130.317 378.882c-17.894-8.678-30.989-24.635-35.932-43.783-1.142-4.444-5.147-7.385-9.525-7.385-0.814 0-1.648 0.105-2.468 0.315-5.264 1.359-8.435 6.728-7.070 11.993 6.394 24.753 23.302 45.371 46.402 56.576 4.897 2.37 10.785 0.328 13.155-4.562s0.328-10.778-4.562-13.154zM246.147 13.301c0-5.337-4.51-9.846-9.846-9.846h-157.538c-5.337 0-9.847 4.51-9.847 9.846v49.231h67.486v39.385h-67.486v39.385h67.486v39.385h-67.486v30.36h-39.385v-197.744c0-27.149 22.082-49.231 49.231-49.231h157.538c27.149 0 49.231 22.082 49.231 49.231v197.743h-39.385v-197.743z" horiz-adv-x="315" />
<glyph unicode="&#xe605;" d="M101.462 446.532c0 16.245-11.816 29.538-26.257 29.538s-26.256-13.293-26.256-29.538v-95.448c15.708 10.6 33.464 18.38 52.513 22.679v72.769zM271.386 222.217c0 74.942-60.751 135.7-135.693 135.7-74.936 0-135.693-60.757-135.693-135.7 0-22.055 5.376-42.811 14.717-61.224-9.341-18.412-14.717-39.168-14.717-61.224 0-74.942 60.758-135.7 135.693-135.7 74.942 0 135.693 60.757 135.693 135.7 0 22.055-5.376 42.811-14.717 61.224 9.334 18.413 14.717 39.168 14.717 61.224zM56.924 279.147c0 10.831 8.861 19.692 19.693 19.692h118.153c10.831 0 19.692-8.861 19.692-19.692v-39.385c0-10.831-8.862-19.692-19.692-19.692h-118.154c-10.831 0-19.692 8.862-19.692 19.692 0.001 0 0.001 39.385 0.001 39.385zM155.386 159.136c0-10.877-8.816-19.692-19.692-19.692-10.87 0-19.692 8.816-19.692 19.692s8.823 19.692 19.692 19.692c10.877-0 19.692-8.816 19.692-19.692zM67.177 95.050c-10.344 3.368-16.003 14.467-12.642 24.813 3.361 10.344 14.461 16.003 24.805 12.642s16.010-14.467 12.656-24.805c-3.368-10.346-14.467-16.010-24.819-12.649zM113.040 28.812c-6.4-8.796-18.707-10.745-27.496-4.358-8.808 6.4-10.746 18.707-4.359 27.504 6.4 8.803 18.707 10.752 27.496 4.365 8.802-6.394 10.752-18.701 4.359-27.51zM135.693 73.802c-10.87 0-19.692 8.816-19.692 19.692s8.823 19.692 19.692 19.692c10.877 0 19.692-8.816 19.692-19.692s-8.816-19.692-19.692-19.692zM185.85 24.453c-8.796-6.394-21.104-4.438-27.504 4.352-6.4 8.808-4.438 21.117 4.345 27.51 8.809 6.394 21.117 4.444 27.511-4.352 6.4-8.803 4.438-21.111-4.352-27.51zM204.215 95.044c-10.358-3.354-21.465 2.31-24.819 12.642-3.361 10.344 2.298 21.452 12.643 24.819 10.345 3.361 21.452-2.304 24.805-12.649 3.362-10.346-2.297-21.438-12.629-24.813z" horiz-adv-x="272" />
<glyph unicode="&#xe606;" d="M460.426 156.718c-0.307 0-0.592-0.036-0.892-0.043-6.935 17.329-15.332 33.938-25.027 49.697l83.97 96.171c5.522 6.328 6.842 15.296 3.374 22.937-3.474 7.633-11.094 12.549-19.491 12.549h-81.688c-11.815 0-21.402-9.581-21.402-21.403s9.589-21.402 21.402-21.402h34.587l-46.351-53.087c-37.976 46.33-88.608 82.202-147.43 101.913l15.332 42.977c8.839 24.627 36.163 46.237 58.566 46.237h57.074c11.836 0 21.402 9.631 21.402 21.403 0 11.842-9.567 21.402-21.402 21.402h-57.074c-40.53 0-83.906-32.817-98.882-74.696l-96.099-269.605c-3.995-11.137 1.784-23.329 12.913-27.324 2.425-0.856 4.851-1.212 7.206-1.212 8.775 0 17.058 5.422 20.19 14.197l0.293 0.778c1.919 5.493 7.848 8.418 13.405 6.563 5.351-1.784 8.425-7.413 6.999-12.913 0-0.078 0-0.078-0.071-0.15-0.071-0.207-0.143-0.428-0.214-0.713-0.071-0.071-0.071-0.207-0.15-0.286-4.829-14.254-17.015-24.998-32.054-27.981-0.464-0.1-0.921-0.257-1.398-0.342-0.627-0.1-1.285-0.093-1.926-0.163-1.669-0.207-3.346-0.442-5.058-0.442-0.45 0-0.921 0.108-1.377 0.121-1.248 0.050-2.482 0.143-3.681 0.314-3.125 0.378-6.235 0.971-9.325 2.068-22.266 7.941-33.874 32.433-25.933 54.699l51.945 145.675c-3.845 0.279-7.72 0.464-11.636 0.464-88.51 0-160.523-72.007-160.523-160.522s72.014-160.522 160.522-160.522c88.515 0 160.522 72.007 160.522 160.522 0 62.005-35.38 115.846-86.974 142.565l13.013 36.507c95.493-31.612 166.643-112.009 186.955-209.591 2.433-11.558 4.138-23.401 5.072-35.385 0.849-11.201 10.202-19.69 21.253-19.69 0.57 0 1.142 0 1.712 0.071 11.764 0.928 20.618 11.201 19.69 22.979-0.071 0.143-0.071 0.279-0.071 0.428v0.286c-0.286 5.707 3.923 10.702 9.703 11.272 5.921 0.5 11.13-3.781 11.629-9.703 0 0 0-0.071 0-0.15 0-0.279 0.071-0.57 0.071-0.921 0.15-0.935 0.15-1.862 0.15-2.853 0-22.423-17.208-40.73-39.075-42.62-0.15-0.014-0.25-0.065-0.406-0.078-1.135-0.093-2.269-0.135-3.396-0.135-22.123 0-40.858 17.029-42.634 39.453-2.134 27.203-8.504 53.329-18.464 77.714-21.46-17.685-35.172-44.447-35.172-74.361 0-53.108 43.206-96.313 96.313-96.313 53.101 0 96.313 43.205 96.313 96.313-0.003 53.108-43.201 96.334-96.302 96.334z" horiz-adv-x="557" />
<glyph unicode="&#xe607;" d="M275.692 436.686c0 21.661-17.723 39.385-39.385 39.385s-39.385-17.723-39.385-39.385v-39.385h78.769v39.385zM319.541 259.455c9.426 10.476 15.228 24.267 15.228 39.385 0 32.493-26.584 59.077-59.077 59.077h-78.769c-32.493 0-59.077-26.584-59.077-59.077 0-15.118 5.803-28.909 15.228-39.385h166.465zM196.923 338.224h19.692c10.883 0 19.692-8.809 19.692-19.692s-8.809-19.692-19.692-19.692h-19.692c-10.883 0-19.692 8.809-19.692 19.692s8.809 19.692 19.692 19.692zM378.618 121.609c9.426 10.476 15.228 24.267 15.228 39.385 0 32.493-26.584 59.077-59.077 59.077h-196.923c-32.493 0-59.077-26.584-59.077-59.077 0-15.118 5.802-28.909 15.228-39.385h284.62zM137.846 200.378h78.769c10.883 0 19.692-8.809 19.692-19.692s-8.809-19.692-19.692-19.692h-78.769c-10.883 0-19.692 8.809-19.692 19.692s8.809 19.692 19.692 19.692zM413.538 82.224h-354.462c-32.492 0-59.077-26.584-59.077-59.077s26.584-59.077 59.077-59.077h354.462c32.493 0 59.077 26.584 59.077 59.077s-26.584 59.077-59.077 59.077zM210.052 23.147h-157.538c-10.883 0-19.692 8.809-19.692 19.692s8.809 19.692 19.692 19.692h157.538c10.883 0 19.692-8.809 19.692-19.692s-8.809-19.692-19.692-19.692z" horiz-adv-x="473" />
<glyph unicode="&#xe608;" d="M646.736 476.070h-592.841c-29.767 0-53.895-24.135-53.895-53.895v-197.614c0-14.884 12.109-26.893 26.858-28.878 97.037-12.971 173.82-107.718 186.791-204.755 1.976-14.748 13.994-26.858 28.878-26.858h215.579c14.884 0 26.902 12.109 28.87 26.858 12.98 97.037 89.762 191.784 186.79 204.764 14.757 1.976 26.865 13.985 26.865 28.869v197.614c0 29.759-24.136 53.895-53.895 53.895zM529.705 289.613l-42.883-42.864-47.634 47.634 26.454 26.462c8.973-2.371 18.908-0.152 25.942 6.889 10.528 10.528 10.528 27.586 0 38.103-10.519 10.528-27.577 10.528-38.103 0-7.034-7.025-9.252-16.968-6.889-25.942l-26.462-26.453-28.582 28.582-105.184-105.184c19.195-1.032 38.095-8.793 52.754-23.453 14.659-14.668 22.43-33.567 23.462-52.762l86.133 86.133 19.052-19.052-128.613-128.638c-31.439-31.439-82.88-31.439-114.329 0-31.439 31.439-31.439 82.889 0 114.32l190.555 190.564c31.439 31.439 82.889 31.439 114.329 0 31.438-31.439 31.438-82.891 0-114.338zM243.901 194.327l-0.028 0.019c-21.010-21.010-21.010-55.205 0-76.216 21.019-21.010 55.206-21.010 76.217 0l-0.019 0.027c21 21 21 55.17 0 76.163-21 21.009-55.17 21.009-76.171 0.008z" horiz-adv-x="701" />
<glyph unicode="&#xe609;" d="M393.889 200.415c-22.13 0-42.765-6.19-60.465-16.774l-96.803 96.81c23.622 37.868 25.571 85.366 5.85 124.849-3.722-6.946-8.875-14.108-16.156-21.396-22.478-22.472-43.829-24.849-60.99-26.752-14.378-1.603-24.77-2.758-37.474-15.455-12.69-12.697-13.846-23.089-15.448-37.474-1.903-17.155-4.281-38.511-26.752-60.977-4.221-4.221-8.391-7.727-12.506-10.655 38.656-18.35 84.578-16.314 121.54 6.244l97.17-97.17c-10.196-17.469-16.13-37.73-16.13-59.421 0-65.27 52.895-118.172 118.172-118.172 65.264 0 118.172 52.902 118.172 118.172-0.005 65.278-52.907 118.173-118.177 118.173zM393.889 23.156c-32.582 0-59.086 26.503-59.086 59.086s26.503 59.086 59.086 59.086c32.576 0 59.086-26.503 59.086-59.086s-26.51-59.086-59.086-59.086zM100.001 369.545c22.466 22.466 43.816 24.835 60.97 26.746 14.385 1.596 24.783 2.758 37.493 15.454 10.925 10.93 13.294 20.168 14.765 31.69-50.262 45.003-127.455 43.513-175.755-4.793-49.75-49.75-49.954-130.232-0.682-180.285 7.038 1.943 13.642 5.37 21.002 12.736 12.704 12.697 13.852 23.089 15.454 37.474 1.916 17.162 4.287 38.518 26.752 60.977z" />
<glyph unicode="&#xe60a;" d="M433.231 371.045c-41.216 0-75.080-31.843-78.434-72.205h39.647c3.138 18.596 19.312 32.821 38.794 32.821 10.877 0 19.692 8.815 19.692 19.692 0 10.876-8.822 19.692-19.699 19.692zM196.923 476.070c-108.761 0-196.923-88.163-196.923-196.923 0-61.794 28.482-116.913 73.005-153.015 16.141 9.57 34.901 15.17 54.994 15.17 26.158 0 50.182-9.328 68.923-24.825 18.741 15.498 42.765 24.825 68.923 24.825 20.093 0 38.853-5.599 54.994-15.17 44.524 36.103 73.005 91.221 73.005 153.015h-196.922v196.923zM128 101.917c-38.072 0-68.923-30.858-68.923-68.923s30.852-68.923 68.923-68.923 68.923 30.858 68.923 68.923-30.851 68.923-68.923 68.923zM128 3.455c-16.285 0-29.538 13.253-29.538 29.538s13.253 29.538 29.538 29.538 29.538-13.253 29.538-29.538c0-16.286-13.253-29.538-29.538-29.538zM265.846 101.917c-38.072 0-68.923-30.858-68.923-68.923s30.851-68.923 68.923-68.923 68.923 30.858 68.923 68.923-30.851 68.923-68.923 68.923zM265.846 3.455c-16.286 0-29.538 13.253-29.538 29.538s13.253 29.538 29.538 29.538c16.286 0 29.538-13.253 29.538-29.538s-13.252-29.538-29.538-29.538z" horiz-adv-x="453" />
<glyph unicode="&#xe60b;" d="M123.924 198.786l88.922 88.922c7.619 7.625 7.619 20.082 0 27.699-7.619 7.619-20.075 7.613-27.694-0.006 0 0-149.146-149.134-150.739-150.74-45.881-45.875-45.888-120.278 0-166.179 45.894-45.888 120.304-45.881 166.191 0 45.888 45.887 45.894 120.291-0.006 166.179-21.314 21.322-48.779 32.611-76.674 34.125zM172.905 26.196c-30.546-30.553-80.246-30.553-110.786-0.014-30.553 30.553-30.553 80.252-0.007 110.793s80.246 30.553 110.786 0.014c30.546-30.553 30.546-80.26 0.006-110.793zM477.596 441.673c-25.199 25.206-58.944 36.519-91.86 34.071-27.093-1.991-53.637-13.389-74.318-34.071l-83.145-83.132c10.707-16.628 26.178-29.685 44.361-37.349 30.651-13.018 65.779-9.642 93.342 8.951-18.554-27.608-21.923-62.731-8.957-93.335 2.559-6.046 5.752-11.744 9.408-17.097l-97.637-97.631c4.381-16.471 6.046-33.523 4.981-50.432l203.782 203.796c20.773 20.773 32.127 47.356 34.071 74.416 2.447 32.909-8.912 66.608-34.027 91.814zM422.771 330.273c-15.616-15.616-40.952-15.629-56.581 0-15.616 15.623-15.616 40.959 0 56.574 13.468 13.468 34.15 15.302 49.608 5.549 0.007-0.013 0.019-0.026 0.033-0.026 2.461-1.553 4.798-3.382 6.94-5.522 15.628-15.623 15.628-40.959 0-56.575z" />
<glyph unicode="&#xe60c;" d="M231.327 325.068l66.911 70.579c-5.716 26.567-29.317 46.486-57.586 46.486-32.552 0-58.935-26.384-58.935-58.935-0.001-29.376 21.498-53.657 49.61-58.13zM66.046 150.698l74.338 78.417-21.388 20.274c-11.846 11.218-30.437 10.72-41.654-1.113l-54.063-57.030c-11.197-11.806-10.7-30.463 1.113-41.654 11.807-11.204 30.456-10.707 41.653 1.106zM473.761 429.979c-0.753 12.265-6.123 23.947-15.146 32.912-19.233 19.115-52.197 17.274-73.8-4.473l-293.282-309.377c-9.718-9.822-20.352-27.103-24.707-40.207l-2.495-7.478c-35.904-2.284-64.331-32.046-64.331-68.527 0-37.974 30.77-68.758 68.758-68.758 37.975 0 68.758 30.784 68.758 68.758 0 25.572-13.994 47.842-34.713 59.688l1.29 3.896c0.524 1.565 1.29 3.353 2.18 5.206h129.468c43.219 0 83.249 35.047 88.966 77.887l24.575 184.33 63.709 67.219c6.235 6.28 14.596 7.262 17.916 3.975 2.148-2.135 3.464-4.846 3.627-7.452 0.079-1.257-0.085-3.005-1.271-4.197l-18.519-18.598c-7.655-7.688-7.629-20.13 0.066-27.785 7.675-7.655 20.117-7.615 27.778 0.059l18.519 18.604c8.834 8.879 13.444 21.386 12.652 34.32zM68.758 3.36c-16.26 0-29.468 13.221-29.468 29.467s13.208 29.467 29.468 29.467c16.24 0 29.468-13.221 29.468-29.467s-13.228-29.467-29.468-29.467zM314.322 101.585c-37.986 0-68.758-30.784-68.758-68.758s30.771-68.758 68.758-68.758c37.974 0 68.758 30.784 68.758 68.758s-30.784 68.758-68.758 68.758zM314.322 3.36c-16.26 0-29.467 13.221-29.467 29.467s13.208 29.467 29.467 29.467c16.24 0 29.467-13.221 29.467-29.467s-13.228-29.467-29.467-29.467z" horiz-adv-x="474" />
<glyph unicode="&#xe60d;" d="M277.142 278.287c-24.078 0-43.661-19.582-43.661-43.66s19.582-43.661 43.661-43.661 43.661 19.582 43.661 43.661-19.589 43.661-43.661 43.661zM552.539 437.43v0l-170.073 38.639c-16.191-44.178-58.243-73.546-105.294-73.568-0.007 0-0.022 0-0.036 0s-0.029 0-0.029 0c-47.051 0.021-89.096 29.391-105.294 73.568l-170.073-38.639c-4.926-48.151 0.647-96.803 16.293-142.596l0.015-0.182c0.015 0.007 0.029 0.007 0.036 0.014 0.007-0.007 0.007-0.007 0.007-0.014v0.014c27.485 6.68 48.95 6.098 76.151-1.535 21.103-75.322 18.265-220.34 18.265-220.34 29.318-4.875 55.667-18.774 76.042-38.865 0.291-0.284 0.575-0.575 0.873-0.938 17.465-17.464 30.344-39.586 36.814-64.625v-0.072c14.99-2.685 31.945-4.075 50.865-4.22 0 0 0.022 0 0.036 0s0.029 0 0.036 0c18.927 0.153 35.882 1.535 50.864 4.22v0.072c6.476 25.032 19.349 47.154 36.82 64.625 0.298 0.364 0.582 0.655 0.873 0.938 20.375 20.091 46.724 33.99 76.042 38.865 0 0-2.846 145.026 18.265 220.34 27.2 7.633 48.667 8.216 76.152 1.535v-0.014c0 0.007 0 0.007 0.007 0.014 0.007-0.007 0.021-0.007 0.036-0.014l0.014 0.182c15.645 45.801 21.22 94.446 16.293 142.596zM355.913 189.147c-9.038-15.659-29.063-21.037-44.73-11.992-0.539 0.313-0.968 0.728-1.477 1.063 0.036-0.618 0.182-1.193 0.182-1.82 0-18.075-14.671-32.731-32.753-32.731-18.075 0-32.745 14.656-32.745 32.738 0 0.618 0.153 1.201 0.182 1.813-0.516-0.335-0.946-0.75-1.484-1.063-15.66-9.038-35.685-3.667-44.722 11.992-9.038 15.652-3.681 35.685 11.985 44.722 0.539 0.313 1.113 0.465 1.659 0.75-0.546 0.276-1.12 0.444-1.659 0.75-15.66 9.045-21.023 29.071-11.985 44.737 9.038 15.652 29.064 21.030 44.722 11.985 0.539-0.313 0.968-0.734 1.484-1.070-0.036 0.611-0.182 1.193-0.182 1.82 0 18.083 14.663 32.745 32.745 32.745 18.075 0 32.745-14.663 32.745-32.745 0-0.618-0.153-1.201-0.182-1.813 0.516 0.343 0.954 0.757 1.491 1.070 15.652 9.038 35.678 3.66 44.722-11.992 9.038-15.66 3.682-35.685-11.978-44.737-0.539-0.313-1.113-0.465-1.666-0.743 0.546-0.276 1.127-0.444 1.666-0.757 15.668-9.030 21.017-29.055 11.978-44.723z" horiz-adv-x="555" />
<glyph unicode="&#xe60e;" d="M558.545 476.070c-25.701 0-46.546-20.844-46.546-46.546 0-17.222 9.379-32.209 23.272-40.262v-52.829h-465.454v52.829c13.894 8.053 23.273 23.048 23.273 40.262 0 25.701-20.844 46.546-46.545 46.546s-46.545-20.844-46.545-46.546c0-17.222 9.379-32.209 23.273-40.262v-425.192h46.545v93.091h465.454v-93.091h46.545v425.192c13.894 8.053 23.273 23.048 23.273 40.262 0 25.701-20.845 46.546-46.545 46.546zM46.545 445.040c-5.492 0-10.473-2.824-13.32-7.571-2.18-3.623-6.027-5.64-9.984-5.64-2.040 0-4.104 0.536-5.989 1.66-5.492 3.304-7.285 10.457-3.979 15.965 6.99 11.629 19.743 18.858 33.272 18.858 6.423 0 11.636-5.213 11.636-11.636s-5.213-11.637-11.636-11.637zM535.273 103.707h-81.454v162.917h-46.546v-162.917h-81.454v162.917h-46.546v-162.917h-81.454v158.55h-46.546v-158.55h-81.454v186.182h465.454v-186.182zM558.545 445.040c-5.492 0-10.472-2.824-13.32-7.571-2.18-3.631-6.028-5.648-9.984-5.648-2.040 0-4.104 0.536-5.989 1.66-5.5 3.313-7.284 10.465-3.987 15.973 6.997 11.629 19.751 18.858 33.28 18.858 6.423 0 11.636-5.213 11.636-11.636s-5.213-11.637-11.636-11.637z" horiz-adv-x="605" />
<glyph unicode="&#xe60f;" d="M492.384 89.859c-8.028 7.283-20.447 6.674-27.723-1.368-49.033-54.123-118.82-85.163-191.46-85.163s-142.427 31.040-191.46 85.163c-7.282 8.035-19.688 8.65-27.722 1.368-8.035-7.276-8.644-19.688-1.367-27.723 56.459-62.322 136.852-98.066 220.55-98.066s164.091 35.744 220.55 98.066c7.283 8.035 6.668 20.447-1.368 27.723zM98.144 319.039v42.772c0 5.392 4.416 9.815 9.814 9.815s9.814-4.423 9.814-9.815l0.17-287.288c0-8.127 6.589-14.721 14.722-14.721s14.721 6.596 14.721 14.721c0.556 70.010 57.441 126.632 127.588 126.632s127.038-56.617 127.588-126.632c0-8.127 6.589-14.721 14.721-14.721s14.721 6.596 14.721 14.721v87.486c0 35.378-11.712 68.020-31.459 94.278 1.538 6.34 4.993 12 10.188 16.115 6.163 4.887 13.865 7.073 21.677 6.176 10.717-1.237 20.505 6.471 21.749 17.248 1.243 10.769-6.478 20.505-17.248 21.749-18.222 2.113-36.189-3.010-50.57-14.414-6.118-4.849-11.202-10.626-15.264-17.018-26.565 20.604-59.887 32.898-96.103 32.898-13.616 0-26.833-1.74-39.428-4.999v44.257c0 64.762-53.005 117.773-117.773 117.773s-117.773-53.011-117.773-117.773v-5.405l19.629 8.925v-42.778c0-21.585 17.666-39.258 39.258-39.258s39.258 17.673 39.258 39.258zM49.072 351.996c-5.418 0-9.815 4.397-9.815 9.815s4.397 9.815 9.815 9.815 9.815-4.397 9.815-9.815-4.397-9.815-9.815-9.815z" horiz-adv-x="499" />
<glyph unicode="&#xe610;" d="M256 476.070c-141.384 0-256-114.616-256-256s114.616-256 256-256 256 114.616 256 256-114.616 256-256 256zM256 13.301c-114.19 0-206.769 92.587-206.769 206.769 0 114.19 92.58 206.769 206.769 206.769s206.769-92.58 206.769-206.769c0-114.183-92.587-206.769-206.769-206.769zM236.308 269.301c0 16.318-13.233 29.538-29.538 29.538s-29.538-13.22-29.538-29.538c0-16.319 13.233-29.538 29.538-29.538s29.538 13.221 29.538 29.538zM305.231 298.84c-16.305 0-29.538-13.22-29.538-29.538s13.233-29.538 29.538-29.538c16.305 0 29.538 13.22 29.538 29.538s-13.233 29.538-29.538 29.538zM309.313 194.608c-7.687 7.687-20.159 7.7-27.851 0l-25.462-25.462-25.462 25.462c-7.686 7.693-20.159 7.693-27.845 0-7.694-7.687-7.694-20.159 0-27.844l25.456-25.462-25.456-25.455c-7.694-7.687-7.694-20.152 0-27.844 3.846-3.846 8.881-5.77 13.929-5.77 5.042 0 10.083 1.923 13.923 5.77l25.454 25.454 25.462-25.462c3.84-3.846 8.882-5.77 13.923-5.77s10.082 1.923 13.923 5.77c7.693 7.687 7.693 20.159 0 27.844l-25.462 25.462 25.462 25.462c7.692 7.687 7.692 20.152 0.006 27.846z" />
<glyph unicode="&#xe611;" d="M285.538 111.762h-59.077c-5.435 0-9.846-4.411-9.846-9.846s4.411-9.846 9.846-9.846h59.077c5.442 0 9.846 4.411 9.846 9.846s-4.404 9.846-9.846 9.846zM256 476.070c-141.384 0-256-114.616-256-256s114.616-256 256-256 256 114.616 256 256-114.616 256-256 256zM256 13.301c-114.19 0-206.769 92.58-206.769 206.769s92.58 206.769 206.769 206.769c114.183 0 206.769-92.58 206.769-206.769s-92.587-206.769-206.769-206.769zM246.154 220.070c0 4.313-2.81 8.126-6.925 9.406l-95.18 29.538c-5.192 1.595-10.706-1.286-12.321-6.486-1.614-5.192 1.286-10.713 6.478-12.321l64.879-20.14-64.88-20.132c-5.192-1.608-8.094-7.128-6.478-12.32 1.313-4.228 5.198-6.932 9.4-6.932 0.964 0 1.95 0.138 2.922 0.44l95.18 29.538c4.115 1.279 6.924 5.093 6.924 9.406zM380.284 252.523c-1.615 5.198-7.128 8.087-12.327 6.486l-95.18-29.538c-4.122-1.274-6.932-5.088-6.932-9.4s2.81-8.127 6.932-9.406l95.18-29.538c0.971-0.302 1.95-0.44 2.921-0.44 4.202 0 8.087 2.704 9.406 6.932 1.608 5.192-1.293 10.712-6.486 12.32l-64.894 20.133 64.886 20.132c5.193 1.608 8.1 7.129 6.492 12.321z" />
<glyph unicode="&#xe612;" d="M256 476.070c-141.384 0-256-114.616-256-256s114.616-256 256-256 256 114.616 256 256-114.616 256-256 256zM256 13.301c-114.19 0-206.769 92.58-206.769 206.769s92.58 206.769 206.769 206.769c114.183 0 206.769-92.58 206.769-206.769s-92.587-206.769-206.769-206.769zM315.077 121.609h-59.077c-10.87 0-19.692-8.822-19.692-19.692s8.822-19.692 19.692-19.692h59.077c10.87 0 19.692 8.822 19.692 19.692s-8.821 19.692-19.692 19.692zM262.564 236.48c0 5.435-4.411 9.846-9.846 9.846s-9.846-4.411-9.846-9.846c0-21.72-17.664-39.385-39.385-39.385s-39.385 17.664-39.385 39.385c0 5.435-4.411 9.846-9.846 9.846s-9.846-4.411-9.846-9.846c0-32.577 26.5-59.077 59.077-59.077s59.077 26.5 59.077 59.077zM393.846 246.327c-5.435 0-9.846-4.411-9.846-9.846 0-21.72-17.664-39.385-39.385-39.385s-39.385 17.664-39.385 39.385c0 5.435-4.411 9.846-9.846 9.846s-9.846-4.411-9.846-9.846c0-32.577 26.5-59.077 59.077-59.077s59.077 26.5 59.077 59.077c0 5.435-4.411 9.846-9.846 9.846z" />
<glyph unicode="&#xe613;" d="M172.222 194.786c-10.654-2.186-17.519-12.59-15.334-23.243s12.583-17.553 23.25-15.334c47.425 9.754 95.422-15.584 114.058-60.2 3.151-7.555 10.47-12.111 18.183-12.111 2.534 0 5.094 0.493 7.582 1.522 10.030 4.195 14.769 15.728 10.575 25.764-25.87 61.959-92.435 97.142-158.313 83.601zM256 476.070c-141.384 0-256-114.616-256-256s114.616-256 256-256 256 114.616 256 256-114.616 256-256 256zM256 13.301c-114.19 0-206.769 92.587-206.769 206.769 0 114.19 92.58 206.769 206.769 206.769 114.183 0 206.769-92.58 206.769-206.769 0-114.183-92.587-206.769-206.769-206.769zM297.524 357.693c-16.102-2.546-25.731-26.375-21.464-53.228 4.24-26.86 20.756-46.56 36.858-44.019 16.115 2.567 25.745 26.408 21.484 53.255-4.247 26.846-20.776 46.539-36.877 43.992zM199.076 260.44c16.102-2.54 32.618 17.159 36.857 44.018 4.267 26.854-5.356 50.688-21.464 53.228-16.102 2.546-32.63-17.145-36.884-43.993-4.252-26.846 5.377-50.687 21.492-53.254z" />
<glyph unicode="&#xe614;" d="M256 476.070c-141.384 0-256-114.616-256-256s114.616-256 256-256 256 114.616 256 256-114.616 256-256 256zM256 13.301c-114.19 0-206.769 92.58-206.769 206.769s92.58 206.769 206.769 206.769 206.769-92.58 206.769-206.769-92.587-206.769-206.769-206.769zM143.399 266.019l-20.874-20.88c-11.507-11.52-11.546-30.195 0-41.76 11.559-11.553 30.248-11.5 41.768 0 11.546 11.572 11.546 30.214 0 41.761l-20.893 20.881zM256 188.891c-25.45 0-49.762-12.248-65.031-32.755-6.492-8.724-4.686-21.058 4.036-27.556 8.737-6.498 21.064-4.687 27.556 4.036 7.988 10.732 20.178 16.889 33.438 16.889 13.253 0 25.443-6.158 33.438-16.889 3.866-5.192 9.8-7.93 15.813-7.93 4.089 0 8.212 1.267 11.743 3.899 8.724 6.492 10.529 18.832 4.036 27.556-15.273 20.506-39.587 32.748-65.029 32.748zM322.856 333.367c-27.726 0-52.9-14.881-66.822-37.632-13.923 22.752-39.096 37.632-66.822 37.632-19.384 0-37.987-7.155-52.382-20.146-4.036-3.643-4.352-9.866-0.715-13.91 3.643-4.036 9.866-4.358 13.91-0.715 10.772 9.721 24.694 15.072 39.194 15.072 27.392 0 51.442-19.397 57.2-46.12 0.971-4.536 4.988-7.772 9.623-7.772 4.64 0 8.651 3.236 9.623 7.772 5.75 26.723 29.814 46.12 57.2 46.12 17.428 0 33.818-7.686 44.978-21.090 3.473-4.182 9.688-4.753 13.863-1.267 4.181 3.479 4.752 9.689 1.267 13.864-14.905 17.913-36.817 28.192-60.113 28.192z" />
<glyph unicode="&#xe615;" d="M256 476.070c-141.384 0-256-114.616-256-256s114.616-256 256-256 256 114.616 256 256-114.616 256-256 256zM256 13.301c-114.19 0-206.769 92.58-206.769 206.769s92.58 206.769 206.769 206.769c114.183 0 206.769-92.58 206.769-206.769s-92.587-206.769-206.769-206.769zM313.436 279.22c-22.016 0-42.68-9.118-57.436-24.878-14.756 15.761-35.427 24.878-57.436 24.878-43.428 0-78.769-35.334-78.769-78.769s35.341-78.769 78.769-78.769c22.010 0 42.68 9.118 57.436 24.878 14.756-15.76 35.42-24.878 57.436-24.878 43.428 0 78.769 35.334 78.769 78.769s-35.341 78.769-78.769 78.769zM313.436 141.373c-1.411 0-2.784 0.158-4.175 0.256 9.276 4.982 15.662 14.651 15.662 25.928 0 16.318-13.226 29.538-29.538 29.538-16.305 0-29.538-13.22-29.538-29.538 0-0.748 0.164-1.457 0.216-2.192-0.611 0.827-1.28 1.596-1.858 2.462-1.818 2.757-4.904 4.411-8.206 4.411s-6.387-1.654-8.206-4.411c-0.577-0.866-1.248-1.635-1.857-2.462 0.053 0.736 0.216 1.444 0.216 2.192 0 16.318-13.226 29.538-29.538 29.538-16.305 0-29.538-13.22-29.538-29.538 0-11.277 6.387-20.946 15.668-25.928-1.392-0.099-2.77-0.256-4.181-0.256-32.572 0-59.077 26.5-59.077 59.077s26.506 59.077 59.077 59.077c19.85 0 38.255-9.892 49.231-26.453 3.643-5.514 12.767-5.514 16.41 0 10.976 16.561 29.38 26.453 49.231 26.453 32.572 0 59.077-26.5 59.077-59.077s-26.505-59.077-59.076-59.077zM275.692 82.224h-39.385c-10.87 0-19.692-8.815-19.692-19.692s8.822-19.692 19.692-19.692h39.385c10.87 0 19.692 8.815 19.692 19.692s-8.821 19.692-19.692 19.692z" />
<glyph unicode="&#xe616;" d="M256 476.070c-141.384 0-256-114.616-256-256s114.616-256 256-256 256 114.616 256 256-114.616 256-256 256zM256 13.301c-114.19 0-206.769 92.58-206.769 206.769s92.58 206.769 206.769 206.769c114.183 0 206.769-92.58 206.769-206.769s-92.587-206.769-206.769-206.769zM318.286 348.070c-32.572 0-59.077-26.506-59.077-59.077 0-5.442 4.404-9.846 9.846-9.846s9.846 4.404 9.846 9.846c0 21.721 17.664 39.385 39.385 39.385s39.385-17.664 39.385-39.385c0-5.442 4.404-9.846 9.846-9.846s9.846 4.404 9.846 9.846c0.001 32.571-26.505 59.077-59.077 59.077zM216.543 288.994c0-5.442 4.405-9.846 9.846-9.846s9.846 4.404 9.846 9.846c0 32.572-26.506 59.077-59.077 59.077s-59.077-26.506-59.077-59.077c0-5.442 4.404-9.846 9.846-9.846s9.846 4.404 9.846 9.846c0 21.721 17.664 39.385 39.385 39.385s39.385-17.664 39.385-39.385zM256 239.762c-38.052 0-68.923-39.693-68.923-88.615s30.87-88.615 68.923-88.615c38.072 0 68.923 39.693 68.923 88.615s-30.851 88.615-68.923 88.615z" />
<glyph unicode="&#xe617;" d="M395.074 219.867c-10.745 1.575-20.743-5.914-22.292-16.686-8.322-57.731-58.524-101.264-116.781-101.264s-108.459 43.534-116.782 101.27c-1.549 10.765-11.579 18.262-22.298 16.686-10.772-1.55-18.236-11.534-16.686-22.298 11.1-76.99 78.060-135.043 155.766-135.043s144.666 58.053 155.76 135.036c1.556 10.765-5.914 20.75-16.686 22.299zM256 476.070c-141.384 0-256-114.616-256-256s114.616-256 256-256 256 114.616 256 256-114.616 256-256 256zM256 13.301c-114.19 0-206.769 92.58-206.769 206.769s92.58 206.769 206.769 206.769c114.183 0 206.769-92.58 206.769-206.769s-92.587-206.769-206.769-206.769zM137.846 269.301c5.435 0 9.846 4.404 9.846 9.846 0 21.721 17.664 39.385 39.385 39.385s39.385-17.664 39.385-39.385c0-5.442 4.411-9.846 9.846-9.846s9.846 4.404 9.846 9.846c0 32.572-26.5 59.077-59.077 59.077s-59.077-26.505-59.077-59.077c0-5.442 4.411-9.846 9.846-9.846zM275.692 269.301c5.435 0 9.846 4.404 9.846 9.846 0 21.721 17.664 39.385 39.385 39.385s39.385-17.664 39.385-39.385c0-5.442 4.411-9.846 9.846-9.846s9.847 4.404 9.847 9.846c0 32.572-26.5 59.077-59.077 59.077s-59.077-26.506-59.077-59.077c-0.001-5.442 4.411-9.846 9.845-9.846z" />
<glyph unicode="&#xe618;" d="M256 82.224c69.298 0 126.668 51.476 136.27 118.154h-272.541c9.603-66.679 66.974-118.154 136.27-118.154zM256 476.070c-141.384 0-256-114.616-256-256s114.616-256 256-256 256 114.616 256 256-114.616 256-256 256zM256 13.301c-114.19 0-206.769 92.58-206.769 206.769s92.58 206.769 206.769 206.769c114.183 0 206.769-92.58 206.769-206.769s-92.587-206.769-206.769-206.769zM137.846 269.301c5.435 0 9.846 4.411 9.846 9.846 0 21.721 17.664 39.385 39.385 39.385s39.385-17.664 39.385-39.385c0-5.435 4.411-9.846 9.846-9.846s9.846 4.411 9.846 9.846c0 32.577-26.5 59.077-59.077 59.077s-59.077-26.499-59.077-59.077c0-5.435 4.411-9.846 9.846-9.846zM275.692 269.301c5.435 0 9.846 4.411 9.846 9.846 0 21.721 17.664 39.385 39.385 39.385s39.385-17.664 39.385-39.385c0-5.435 4.411-9.846 9.846-9.846s9.847 4.411 9.847 9.846c0 32.577-26.5 59.077-59.077 59.077s-59.077-26.5-59.077-59.077c-0.001-5.435 4.411-9.846 9.845-9.846z" />
<glyph unicode="&#xe619;" d="M565.641 249.603c0 16.312-13.227 29.538-29.538 29.538h-4.503c-26.683 112.889-128.033 196.929-249.075 196.929s-222.393-84.039-249.076-196.928h-3.913c-16.311 0-29.538-13.227-29.538-29.539 0-15.281 11.651-27.714 26.532-29.237 0-0.099-0.006-0.19-0.006-0.296 0-141.385 114.615-256 256-256s255.999 114.616 255.999 256.001c0 0.078-0.006 0.157-0.006 0.236 15.163 1.254 27.123 13.81 27.123 29.295zM282.525 426.84c93.656 0 172.727-62.3 198.156-147.699h-15.42c-12.577 39.902-49.913 68.923-93.918 68.923-39.005 0-72.684-22.85-88.615-55.827-15.932 32.971-49.611 55.827-88.615 55.827-44.045 0-81.427-29.079-93.965-69.048-0.413 0.019-0.8 0.125-1.215 0.125h-14.566c25.424 85.4 104.501 147.699 198.157 147.699zM429.883 242.042c-3.735-29.013-28.528-51.515-58.538-51.515-32.572 0-59.077 26.499-59.077 59.077s26.505 59.077 59.077 59.077c30.005 0 54.803-22.502 58.538-51.515-0.644-2.429-1.103-4.93-1.103-7.562s0.459-5.134 1.103-7.562zM253.19 249.603c0-32.578-26.506-59.077-59.077-59.077s-59.077 26.499-59.077 59.077 26.506 59.077 59.077 59.077 59.077-26.499 59.077-59.077zM282.525 13.302c-114.183 0-206.769 92.58-206.769 206.762h23.177c0.413 0 0.8 0.106 1.215 0.125 12.537-39.969 49.913-69.048 93.965-69.048 39.005 0 72.684 22.849 88.615 55.827 15.932-32.971 49.611-55.827 88.615-55.827 44.005 0 81.342 29.019 93.918 68.923h24.031c-0.005-114.183-92.586-206.762-206.769-206.762zM312.064 115.046h-59.077c-10.876 0-19.692-8.815-19.692-19.692s8.815-19.692 19.692-19.692h59.077c10.877 0 19.692 8.815 19.692 19.692s-8.815 19.692-19.692 19.692zM213.806 249.603c0-10.875-8.816-19.692-19.692-19.692s-19.692 8.816-19.692 19.692c0 10.876 8.816 19.692 19.692 19.692s19.692-8.817 19.692-19.692zM391.043 249.603c0-10.879-8.82-19.698-19.699-19.698s-19.699 8.82-19.699 19.698c0 10.879 8.82 19.698 19.699 19.698s19.699-8.82 19.699-19.698z" horiz-adv-x="566" />
<glyph unicode="&#xe61a;" d="M437.016 401.086c-99.971 99.978-262.066 99.978-362.038 0-99.972-99.972-99.972-262.066 0-362.038s262.066-99.972 362.038 0c99.978 99.973 99.978 262.066 0 362.038zM402.207 73.866c-80.739-80.745-211.673-80.745-292.418 0-80.739 80.739-80.739 211.673 0 292.412 80.745 80.745 211.673 80.745 292.418 0 80.739-80.739 80.739-211.68 0-292.412zM235.112 352.348c7.438 7.444 17.329 11.54 27.852 11.54h0.007c10.522 0 20.408-4.102 27.851-11.54 7.438-7.438 11.534-17.329 11.534-27.845 0-10.522-4.096-20.408-11.534-27.851-3.846-3.846-3.846-10.076 0-13.923 1.923-1.923 4.444-2.888 6.964-2.888s5.041 0.965 6.958 2.888c11.159 11.159 17.303 25.994 17.303 41.774s-6.144 30.615-17.303 41.767c-11.159 11.159-25.994 17.303-41.774 17.31h-0.014c-15.78 0-30.614-6.15-41.774-17.31-3.846-3.846-3.846-10.076 0-13.922 3.853-3.847 10.089-3.847 13.929 0zM402.207 268.807c-23.034 23.047-60.515 23.047-83.548 0-3.846-3.846-3.846-10.076 0-13.922 3.84-3.846 10.076-3.846 13.923 0 15.36 15.353 40.349 15.367 55.702 0 15.353-15.36 15.353-40.343 0-55.697-3.846-3.846-3.846-10.076 0-13.923 1.916-1.923 4.444-2.888 6.964-2.888s5.041 0.959 6.964 2.888c23.026 23.027 23.026 60.502-0.007 83.543zM130.675 345.39c-69.094-69.1-69.094-181.537 0-250.644 33.425-33.43 77.935-51.837 125.322-51.837s91.891 18.412 125.322 51.837l13.93 13.923-250.651 250.651-13.923-13.929zM338.562 109.66c-23.67-17.756-52.362-27.366-82.564-27.366-12.19 0-24.090 1.714-35.564 4.746l70.374 70.374 47.754-47.754zM262.962 185.252l-81.238-81.238c-8.278 5.317-16.089 11.461-23.197 18.577-7.181 7.181-13.286 15.012-18.543 23.236l81.205 81.198 41.773-41.774zM193.343 254.878l-70.4-70.394c-10.608 39.943-3.118 83.732 22.646 118.141l47.754-47.748z" />
<glyph unicode="&#xe61b;" d="M181.425 83.957l11.284-23.702 63.285 30.136 63.285-30.136 11.284 23.702-74.563 35.505-74.575-35.505zM256 476.070c-141.384 0-256-114.616-256-256s114.616-256 256-256 256 114.616 256 256-114.616 256-256 256zM256 13.301c-114.19 0-206.769 92.58-206.769 206.769s92.58 206.769 206.769 206.769c114.183 0 206.769-92.58 206.769-206.769s-92.587-206.769-206.769-206.769zM393.538 274.014l-137.55-80.771-137.544 80.772-19.942-33.963 49.828-29.263c-2.475-5.146-3.918-10.884-3.918-16.981 0-21.707 17.625-39.385 39.385-39.385 13.266 0 24.924 6.649 32.060 16.712l40.132-23.572 40.152 23.578c7.135-10.070 18.793-16.719 32.065-16.719 21.753 0 39.385 17.671 39.385 39.378 0 6.104-1.45 11.848-3.925 16.995l49.822 29.256-19.948 33.963z" />
<glyph unicode="&#xe61c;" d="M256 476.070c-141.384 0-256-114.616-256-256s114.616-256 256-256 256 114.616 256 256-114.616 256-256 256zM256 13.301c-114.19 0-206.769 92.587-206.769 206.769 0 114.19 92.58 206.769 206.769 206.769s206.769-92.58 206.769-206.769c0-114.183-92.587-206.769-206.769-206.769zM210.452 299.319c13.423-2.12 27.071 13.561 30.477 35.052 3.406 21.484-4.726 40.625-18.15 42.752s-27.071-13.555-30.471-35.046c-3.406-21.49 4.726-40.631 18.143-42.758zM301.824 299.325c13.423 2.12 21.55 21.262 18.15 42.752-3.406 21.484-17.053 37.173-30.478 35.046-13.418-2.12-21.55-21.255-18.15-42.745 3.406-21.485 17.054-37.179 30.478-35.053zM324.923 269.301c-13.719 0-26.65-3.086-38.204-8.664-0.394-0.191-0.788-0.394-1.182-0.591-26.322-12.465-32.755-12.465-59.077 0-0.394 0.197-0.788 0.4-1.181 0.591-11.553 5.586-24.484 8.664-38.203 8.664-48.968 0-88.615-39.648-88.615-88.615s39.647-88.615 88.615-88.615c11.356 0 22.186 2.101 32.164 6.038 1.444 0.656 2.888 1.313 4.398 1.838 9.977 3.938 20.808 6.038 32.164 6.038 12.274 0 23.894-2.495 34.527-6.958h0.065c10.634-4.464 22.318-6.958 34.527-6.958 48.968 0 88.615 39.647 88.615 88.615s-39.647 88.616-88.615 88.616z" />
<glyph unicode="&#xe61d;" d="M256 476.070c-141.384 0-256-114.616-256-256s114.616-256 256-256 256 114.616 256 256-114.616 256-256 256zM256 13.301c-114.19 0-206.769 92.58-206.769 206.769s92.58 206.769 206.769 206.769 206.769-92.58 206.769-206.769-92.587-206.769-206.769-206.769zM313.43 328.378c-22.002 0-42.68-9.118-57.43-24.885-14.756 15.767-35.427 24.885-57.436 24.885-43.434 0-78.769-35.334-78.769-78.769s35.334-78.769 78.769-78.769c22.010 0 42.68 9.118 57.436 24.885 14.756-15.767 35.426-24.885 57.43-24.885 43.435 0 78.769 35.334 78.769 78.769s-35.334 78.769-78.769 78.769zM313.43 190.532c-19.85 0-38.25 9.892-49.224 26.46-1.825 2.75-4.91 4.405-8.206 4.405-3.302 0-6.387-1.654-8.212-4.405-10.976-16.568-29.375-26.46-49.224-26.46-32.572 0-59.077 26.506-59.077 59.077s26.506 59.077 59.077 59.077c19.85 0 38.25-9.892 49.224-26.46 3.649-5.5 12.767-5.5 16.416 0 10.976 16.568 29.375 26.46 49.224 26.46 32.572 0 59.077-26.506 59.077-59.077s-26.498-59.077-59.076-59.077zM305.231 279.147c-16.305 0-29.538-13.22-29.538-29.538s13.233-29.538 29.538-29.538c16.312 0 29.538 13.22 29.538 29.538s-13.226 29.538-29.538 29.538zM206.769 279.147c-16.305 0-29.538-13.22-29.538-29.538s13.233-29.538 29.538-29.538c16.312 0 29.538 13.22 29.538 29.538s-13.226 29.538-29.538 29.538zM325.567 118.583c-38.361 24.142-100.772 24.142-139.132 0-9.202-5.796-11.966-17.952-6.177-27.156 5.79-9.196 17.946-11.96 27.156-6.176 25.429 16.003 71.746 16.003 97.174 0 3.256-2.055 6.886-3.026 10.47-3.026 6.545 0 12.945 3.262 16.686 9.202 5.788 9.202 3.025 21.36-6.178 27.156z" />
<glyph unicode="&#xe61e;" d="M256 476.070c-141.384 0-256-114.616-256-256s114.616-256 256-256 256 114.616 256 256-114.616 256-256 256zM256 13.301c-114.19 0-206.769 92.587-206.769 206.769 0 114.19 92.58 206.769 206.769 206.769s206.769-92.58 206.769-206.769c0-114.183-92.587-206.769-206.769-206.769zM252.134 276.942c-57.232 0-111.104-28.035-144.108-74.982-6.255-8.894-4.109-21.183 4.785-27.438 8.888-6.255 21.182-4.11 27.432 4.786 25.639 36.476 67.466 58.25 111.892 58.25s86.252-21.774 111.885-58.25c3.84-5.448 9.932-8.363 16.128-8.363 3.912 0 7.864 1.162 11.31 3.584 8.894 6.25 11.041 18.531 4.786 27.438-33 46.947-86.877 74.976-144.109 74.976zM157.538 318.532h59.077c10.876 0 19.692 8.815 19.692 19.692s-8.815 19.692-19.692 19.692h-59.077c-10.876 0-19.692-8.815-19.692-19.692s8.815-19.692 19.692-19.692zM295.385 318.532h59.077c10.877 0 19.692 8.815 19.692 19.692s-8.815 19.692-19.692 19.692h-59.077c-10.877 0-19.692-8.815-19.692-19.692s8.815-19.692 19.692-19.692z" />
<glyph unicode="&#xe61f;" d="M285.538 111.763h-59.077c-5.435 0-9.846-4.411-9.846-9.846s4.411-9.846 9.846-9.846h59.077c5.442 0 9.846 4.411 9.846 9.846s-4.404 9.846-9.846 9.846zM256 476.070c-141.384 0-256-114.616-256-256s114.616-256 256-256c141.384 0 256 114.616 256 256s-114.616 256-256 256zM256 13.301c-114.189 0-206.769 92.58-206.769 206.769s92.58 206.769 206.769 206.769c114.183 0 206.769-92.58 206.769-206.769s-92.587-206.769-206.769-206.769zM328.199 234.295c-13.719 0-26.651-3.085-38.203-8.665-0.394-0.19-0.788-0.394-1.182-0.591-26.322-12.465-32.755-12.465-59.077 0-0.394 0.197-0.787 0.4-1.181 0.591-11.553 5.586-24.484 8.665-38.203 8.665-48.968 0-88.615-39.647-88.615-88.615s39.647-88.615 88.615-88.615c11.356 0 22.186 2.101 32.164 6.039 1.444 0.656 2.888 1.313 4.398 1.838 9.977 3.938 20.808 6.039 32.164 6.039 12.275 0 23.894-2.495 34.527-6.958h0.065c10.634-4.464 22.318-6.958 34.527-6.958 48.968 0 88.615 39.647 88.615 88.615s-39.647 88.615-88.615 88.615zM246.148 297.743c0 4.313-2.809 8.126-6.925 9.406l-95.179 29.538c-5.192 1.595-10.706-1.286-12.321-6.486-1.615-5.192 1.286-10.713 6.479-12.321l64.88-20.132-64.88-20.132c-5.192-1.608-8.094-7.129-6.479-12.321 1.306-4.227 5.199-6.932 9.4-6.932 0.965 0 1.95 0.138 2.921 0.44l95.18 29.538c4.123 1.274 6.925 5.087 6.925 9.4zM380.278 330.203c-1.615 5.199-7.128 8.094-12.327 6.486l-95.18-29.538c-4.123-1.274-6.931-5.087-6.931-9.406s2.81-8.126 6.932-9.406l95.18-29.538c0.971-0.302 1.956-0.44 2.921-0.44 4.201 0 8.087 2.704 9.406 6.932 1.608 5.192-1.293 10.712-6.486 12.321l-64.886 20.132 64.886 20.132c5.192 1.615 8.094 7.135 6.486 12.327z" />
<glyph unicode="&#xe620;" d="M256 476.070c-141.384 0-256-114.616-256-256s114.616-256 256-256 256 114.616 256 256-114.616 256-256 256zM256 13.301c-114.189 0-206.769 92.587-206.769 206.769 0 114.189 92.58 206.769 206.769 206.769s206.769-92.58 206.769-206.769c0-114.183-92.587-206.769-206.769-206.769zM288.243 303.73c-9.229 9.223-24.195 9.236-33.418 0l-30.556-30.556-30.556 30.556c-9.222 9.229-24.196 9.229-33.418 0-9.229-9.222-9.229-24.195 0-33.418l30.556-30.549-30.549-30.543c-9.229-9.223-9.229-24.182-0.006-33.418 4.614-4.615 10.66-6.925 16.712-6.925 6.046 0 12.097 2.304 16.706 6.925l30.549 30.543 30.556-30.556c4.615-4.615 10.66-6.925 16.706-6.925s12.098 2.31 16.706 6.925c9.229 9.223 9.229 24.195 0 33.418l-30.543 30.556 30.556 30.556c9.229 9.222 9.229 24.182 0 33.411zM463.865 163.179h-118.154c-10.877 0-19.692-8.815-19.692-19.692s8.815-19.692 19.692-19.692h118.154c10.877 0 19.692 8.815 19.692 19.692s-8.822 19.692-19.692 19.692zM409.502 298.472c-19.955 3.085-36.93-13.83-33.904-33.798 1.884-12.439 12.038-22.62 24.471-24.543 19.955-3.085 36.93 13.831 33.904 33.798-1.884 12.439-12.038 22.62-24.471 24.543z" />
<glyph unicode="&#xe621;" d="M437.019 401.089c-99.971 99.978-262.065 99.978-362.036 0-99.972-99.971-99.972-262.065 0-362.036s262.065-99.972 362.036 0c99.978 99.971 99.978 262.065 0 362.036zM402.209 73.868c-80.738-80.745-211.673-80.745-292.418 0-80.739 80.738-80.739 211.673 0 292.411 80.745 80.745 211.673 80.745 292.418 0 80.738-80.738 80.738-211.679 0-292.411zM390.564 61.304l27.897 25.029-299.487 298.253-25.85-29.952z" />
<glyph unicode="&#xe622;" d="M440.164 56.562c-3.817 43.316-4.048 109.389 7.858 153.033 10.813 39.635 24.010 82.616 47.184 128.361l4.183 8.25c3.161 6.239 2.371 13.749-2.017 19.191l-5.801 7.202c-24.671 30.62-66.471 73.744-144.333 94.606-7.839 2.101-15.978 3.945-24.183 5.481l-16.435 3.077c-10.723 2.005-20.707-6.026-21.041-16.923l-0.514-16.704c-0.366-11.854-0.713-31.443-1.105-53.57-0.745-42.301-1.991-113.103-3.829-124.596-2.435-12.837-9.984-38.209-15.034-54.418-0.861-2.756-2.358-5.243-4.401-7.279-4.491-4.491-9.476-9.001-13.203-12.066-1.94-1.594-4.144-2.699-6.572-3.328-25.622-6.669-115.267-26.091-128.349-28.353-3.765-0.656-11.983-1.651-19.93-2.622-14.353-1.748-23.502-2.936-29.933-4.067-1.684-0.296-3.392-0.315-5.089-0.109-13.582 1.632-28.237 2.236-40.264-7.671-9.091-7.485-18.375-23.778-17.264-41.858 0.617-10.036 4.414-19.326 10.768-26.83 4.838-10.697 13.852-19.834 25.063-24.909 5.988-6.315 14.79-13.421 27.441-16.813 2.21-0.591 4.459-1.047 6.746-1.368 2.268-0.321 4.453-1.022 6.47-2.101 4.414-2.371 9.117-4.247 13.968-5.551 1.671-0.45 3.322-0.816 4.96-1.111 5.095-3.007 10.98-5.409 17.642-7.196 7.71-2.069 16.017-3.168 24.498-3.264 2.139-0.026 4.214-0.399 6.213-1.17 7.375-2.859 15.574-5.5 24.498-7.889 24.819-6.649 55.138-11.314 87.68-13.479 2.692-0.18 5.962-0.777 9.721-1.786 7.061-1.889 15.104-4.986 23.624-8.262 9.984-3.842 21.298-8.192 33.21-11.385 13.692-3.669 26.239-5.294 38.344-4.96 20.309 0.553 45.828 3.662 63.028 22.962 18.009 20.193 18.118 47.736 16.204 69.478zM360.060-3.806c-9.952-0.27-19.673 1.337-29.162 3.88-19.988 5.358-38.947 14.854-56.827 19.647-5.39 1.445-10.697 2.461-15.895 2.808-31.661 2.114-59.513 6.566-81.505 12.457-9.888 2.647-18.587 5.589-25.917 8.738-2.673 1.15-5.525 1.613-8.436 1.49-7.659-0.334-14.88 0.501-20.849 2.101-6.637 1.779-11.738 4.504-14.199 7.627-2.281-0.411-5.242-0.167-8.397 0.681-3.412 0.913-7.055 2.531-10.319 4.8-3.071 2.133-6.644 3.354-10.376 3.373-2.377 0.013-4.529 0.321-6.495 0.848-8.577 2.3-13.486 8.802-17.276 13.64-0.944 0.103-1.85 0.27-2.712 0.501-8.236 2.21-12.657 9.882-12.599 14.109-12.914 8.204-4.587 23.701-1.33 26.38 2.859 2.351 13.055 0.99 21.144-0.077 1.979-0.264 3.983-0.090 5.93 0.347 10.582 2.377 42.301 5.454 53.217 7.344 12.137 2.101 132.929 27.986 140.241 31.738 6.714 3.443 22.204 17.283 31.668 27.858 1.6 1.786 2.743 3.894 3.476 6.18 3.572 11.237 14.784 47.145 18.266 65.514 2.776 14.635 3.894 109.575 4.928 161.295 0.244 12.278 10.228 19.956 22.095 16.788 0.070-0.019 0.142-0.038 0.205-0.058 62.597-16.775 98.634-49.908 120.029-74.605 4.683-5.403 5.603-13.036 2.505-19.48-21.317-44.382-34.142-86.414-44.415-124.070-13.223-48.475-12.933-118.043-8.86-164.296 4.067-46.258-10.903-56.551-48.135-57.56z" horiz-adv-x="502" />
<glyph unicode="&#xe623;" d="M476.57 188.639c15.846 18.095 23.262 45.35 19.341 71.154-3.545 23.231-15.878 44.078-34.951 59.299-3.755 21.282-15.694 42.418-32.792 57.568-10.666 9.281-21.813 15.412-33.22 18.274-7.639 13.796-18.779 24.955-32.53 32.53-11.082 6.113-23.185 9.626-35.411 10.303-12.346 16.505-30.659 29.452-50.255 35.238-20.209 5.978-38.981 3.143-52.822-8.010-12.149-9.804-27.267-26.679-40.904-41.9-4.063-4.56-8.763-9.798-12.225-13.49-20.688-5.723-64.396-9.434-82.529-34.255s-45.822-82.050-49.456-103.441c-3.635-21.385 9.498-79.731 9.498-79.731-4.707-6.898-16.913-23.25-48.313-62.026l35.072-32.396c9.613 11.274 18.67 21.985 22.125 26.379 19.251 0.147 58.475-4.51 58.475-4.51s-28.775 117.276-28.819 139.146c-0.044 21.87 27.835 73.223 38.355 86.796 10.52 13.567 59.785 27.261 71.716 22.298s57.561-24.035 57.561-24.035c-12.876-18.772-1.738-30.064 3.244-32.517 5.647-2.779 26.022-7.288 35.532-11.139 6.904 8.693 10.060 14.372 14.308 21.493l17.041-7.115c-7.537-23.358-18.498-37.978-35.021-45.668-21.423-9.983-59.012-10.392-94.888 20.841l1.457 21.557c0.211 3.654-2.427 6.815-5.972 7.032s-6.63-2.587-6.879-6.26l-3.168-33.086c-0.083-1.341 16.965-14.901 24.239-19.168 5.512-16.204 18.357-55.173 24.674-84.043 15.534 31.017 33.999 51.883 45.069 57.096 2.733-8.706 7.205-18.414 16.351-26.405 8.872-7.754 21.94-13.777 41.478-15.361v0.038c5.058-10.392 12.832-20.082 21.896-28.008 6.841-5.978 14.384-10.884 21.985-14.384-31.521-31.431-53.097-48.555-60.844-49.929-12.692-2.223-50.651-6.285-60.155-7.709-32.722-4.938-111.246-95.023-111.981-95.917l-0.383-0.466 35.475-30.633c33.821 35.628 76.047 76.609 83.29 80.166 8.38 1.264 47.445 5.48 61.228 7.92 17.584 3.060 52.675 20.548 154.111 136.476zM215.441 388.802c0.619 0.69 1.099 1.22 1.756 1.954 11.619 12.985 26.085 29.132 35.309 36.567 1.016 0.824 4.899 1.43 11.044-0.37 13.438-3.973 27.446-16.249 31.272-27.312l0.524-1.533c-6.732-9.070-18.082-23.563-25.338-32.748-19.979 8.502-41.16 17.52-54.566 23.441zM287.68 357.83c6.918 8.789 16.971 21.678 23.211 30.154l3.603 0.983c7.863 2.146 17.437 0.741 25.587-3.768 6.483-3.59 14.889-10.667 18.197-24.221l0.798-3.257c-4.298-6.087-10.928-15.010-17.437-23.588-4.873 2.67-23.69 10.794-53.959 23.697zM331.094 219.987c-27.139 3.334-30.499 17.795-33.361 31.994 22.866 10.98 34.989 30.658 42.079 49.559 4.433 5.454 25.223 32.389 34.989 46.441l2.938 0.677c4.938 1.137 12.589-2.082 19.596-8.207l0.3-0.262c9.428-8.387 15.821-20.286 17.411-30.927-11.593-28.27-61.317-77.42-83.954-89.275zM357.058 203.425c24.336 17.699 56.341 50.025 74.137 77.988 12.647-9.875 17.469-21.205 18.76-29.631 2.185-14.301-2.906-26.085-7.92-31.821-15.808-18.070-30.486-34.152-43.925-48.332-9.945-0.108-32.051 13.771-41.050 31.796z" horiz-adv-x="497" />
<glyph unicode="&#xe624;" d="M231.881 53.531l-101.77 178.42h-76.65v-178.42h-53.462v422.539h132.043c21.462 0 41.322-2.048 59.581-6.119 18.25-4.088 33.923-10.842 47.020-20.289s23.296-21.685 30.596-36.714c7.291-15.038 10.95-33.494 10.95-55.394 0-33.074-8.588-59.474-25.764-79.226s-40.159-33.279-68.921-40.579l106.923-184.217h-60.547zM53.462 275.75h70.853c33.064 0 58.391 6.763 76.005 20.29 17.606 13.526 26.409 34.031 26.409 61.513 0 27.911-8.803 47.441-26.409 58.615-17.615 11.164-42.941 16.747-76.005 16.747h-70.853v-157.164zM229.734 73.999l-62.694 100.911h53.247l23.618-39.935c3.149-5.735 6.361-11.666 9.661-17.82 3.283-6.155 6.504-12.095 9.661-17.82h1.717c2.577 5.726 5.296 11.656 8.159 17.82 2.863 6.155 5.582 12.095 8.159 17.82l20.183 39.935h51.1l-62.264-106.493 66.988-104.346h-53.247l-25.764 41.653c-3.435 6.298-6.942 12.596-10.521 18.894-3.587 6.298-7.238 12.453-10.95 18.464h-1.718c-3.158-6.012-6.226-12.095-9.232-18.25s-6.083-12.524-9.232-19.109l-22.329-41.653h-51.529l66.988 109.929z" horiz-adv-x="358" />
</font>
</defs>
</svg>
